<svg xmlns="http://www.w3.org/2000/svg" viewBox="80 100 640 390" fill="#7fd0d6" aria-label="Brighton Royal Pavilion">
<path d="M301.8,144c-1.2,0-2.2-.9-2.3-2.2l-.3-15.5c0-2.2.7-4.4,1.9-6,1.3-1.6,3.1-2.5,4.9-2.6h.6c1.9,0,3.7.8,5,2.3,1.4,1.5,2.1,3.7,2.2,5.9l.3,15.5c0,1.2-.9,2.2-2.2,2.3l-10.3.2Z"></path>
<path d="M501.7,143.5c-1.1,0-2-.9-1.9-2l.3-13.8c.1-5.2,3-9.4,6.5-9.3h2c1.7,0,3.3,1.1,4.4,2.9,1.2,1.8,1.8,4.2,1.7,6.7l-.3,13.8c0,1.1-.9,1.9-2,1.9l-10.7-.2Z"></path>
<path d="M503.4,154h7.1c1,0,1.8.8,1.8,1.8l-.2,98.4c0,1-.8,1.8-1.8,1.8h-7.1c-1,0-1.8-.8-1.8-1.8l.2-98.4c0-1,.8-1.8,1.8-1.8h0Z"></path>
<path d="M302.9,154.2h8.5c.7,0,1.2.5,1.2,1.2l.2,99.3c0,.7-.5,1.2-1.2,1.2h-8.5c-.7,0-1.2-.5-1.2-1.2l-.2-99.3c0-.7.5-1.2,1.2-1.2h0Z"></path>
<path d="M248.1,222.3c.5,0,.9.2,1.2.5,4.4,7.1,9.9,13.2,16.6,18.3,5.4,4.2,11.9,8.2,14.9,12.5,5.4,7.8,4.8,16.2-1.8,25-1.8,2.5-4.7,3.9-7.8,4-3.1.1-10.7.2-23,.2s-20,0-23.1-.2c-3.1,0-5.9-1.6-7.8-4-6.6-8.8-7.2-17.2-1.8-25,3-4.3,9.4-8.4,14.9-12.5,6.7-5.2,12.3-11.3,16.6-18.3.2-.3.6-.5,1.1-.5h0Z"></path>
<path d="M146.7,282.7c-12.3,0-19.9,0-23,0-3.1,0-5.9-1.6-7.8-4-6.6-8.8-7.2-17.1-1.9-24.9,2.9-4.3,9.4-8.4,14.8-12.5,6.7-5.2,12.2-11.3,16.5-18.3.2-.4.6-.5,1.1-.5s.9.2,1.2.5c4.4,7,9.9,13.1,16.6,18.2,5.4,4.1,11.9,8.1,14.9,12.5,5.4,7.8,4.8,16.1-1.7,24.9-1.8,2.5-4.7,4-7.7,4.1-3,.1-10.7.2-23,.2h0Z"></path>
<path d="M566.7,282.9c-12.3,0-20,0-23.1-.2-3.1-.1-5.9-1.6-7.8-4.1-6.6-8.8-7.2-17.2-1.8-25.1,3-4.4,9.5-8.4,14.9-12.5,6.7-5.1,12.3-11.3,16.7-18.3.2-.4.6-.5,1.1-.5s.9.2,1.2.5c4.4,7.1,9.9,13.2,16.6,18.4,5.4,4.2,11.9,8.2,14.9,12.6,5.4,7.9,4.8,16.2-1.9,25-1.8,2.5-4.7,3.9-7.8,4-3.1.1-10.7.1-23.1.1h0Z"></path>
<path d="M668.2,282.8c-12.3,0-20-.1-23-.2-3.1-.1-5.9-1.6-7.7-4-6.5-8.8-7.1-17.2-1.7-25,3-4.3,9.4-8.3,14.9-12.5,6.7-5.1,12.3-11.2,16.7-18.2.2-.3.6-.5,1.1-.5s.9.2,1.2.5c4.3,7.1,9.8,13.2,16.5,18.4,5.4,4.2,11.8,8.2,14.8,12.6,5.3,7.9,4.7,16.2-1.9,24.9-1.8,2.4-4.7,3.9-7.8,4-3,0-10.7.1-23,0h0Z"></path>
<path d="M518.1,296.5c0,.9-1.1,1.4-1.8.8-7.1-6.9-11.5-10.9-13.1-12.1-7.1-5.2-7-11-5.9-17.8.1-.8.8-1.3,1.5-1.3h17.9c.8,0,1.4.6,1.4,1.4v29Z"></path>
<path d="M317.6,267.2v11.2c0,.2-.1.5-.3.7l-19.6,19.7c-.6.6-1.6.2-1.6-.7v-30.9c0-.5.4-.9.9-.9h19.6c.5,0,.9.4.9.9h0Z"></path>
<path d="M407.4,285.4c24,0,50.5.2,79.4.4,1.5,0,2.9.6,4,1.6l20.2,18.3c.8.8.3,2.2-.9,2.3-33.9-.2-68.1-.2-102.8-.3-34.7,0-69,0-102.8,0-1.2,0-1.8-1.5-.9-2.3l20.3-18.2c1.1-1,2.5-1.5,4-1.6,28.9-.2,55.4-.3,79.5-.3h0Z"></path>
<path d="M118,292.8h163.7c1.1,0,2,.9,2,2v10.9c0,1.1-.9,2-2,2H118c-1.1,0-2-.9-2-2v-10.9c0-1.1.9-2,2-2h0Z"></path>
<path d="M532.4,292.8l165.8.3c1.1,0,2,.9,2,2v10.6c0,1.1-.9,2-2,2l-165.8-.3c-1.1,0-2-.9-2-2v-10.6c0-1.1.9-2,2-2h0Z"></path>
<path d="M329.3,266.2h155.9c1,0,1.8.8,1.8,1.8v6.3c0,1-.8,1.8-1.8,1.8h-155.9c-1,0-1.8-.8-1.8-1.8v-6.3c0-1,.8-1.8,1.8-1.8h0Z"></path>
<path d="M407.2,317.3c68.1,0,104.6,0,109.6.2.5,0,.9.4.9,1v154.5c0,1-.8,1.8-1.8,1.8h-7.8c-1.1,0-2.1-.9-2.1-2.1-.3-29.6-.3-57.3.1-82.9.2-14.6-7.4-24.9-22.9-31.1-3.2-1.3-8.7,2.4-12.5,5.3-10.7,7.9-12.7,15.9-12.7,30,0,12.6,0,38.9,0,79,0,1.1-.9,2-2,2h-18.6c-1.1,0-2-.9-2-2,.1-36.1.1-65.2,0-87.5,0-15.2-10.9-24.5-24.2-32.5-1.8-1.1-3.2-1.6-4.2-1.6s-2.4.5-4.2,1.6c-13.3,7.9-24.2,17.2-24.3,32.4-.1,22.2-.1,51.4,0,87.5,0,1.1-.9,2-2,2h-18.6c-1.1,0-2-.9-2-2,0-40.1,0-66.4,0-79,0-14.1-2-22.1-12.7-30-3.8-2.8-9.3-6.6-12.5-5.3-15.5,6.1-23.2,16.5-22.9,31.1.4,25.6.4,53.2,0,82.9,0,1.2-.9,2.1-2.1,2.1h-7.8c-1,0-1.8-.8-1.8-1.8v-154.5c.1-.5.5-1,1-1,5-.1,41.5-.2,109.6-.1h0Z"></path>
<path d="M407.3,113.2c.4,0,.7.2.8.5,3.9,9.9,9.8,19.3,17.6,28.1,8.7,9.8,24,17.6,34.6,25.2,29.5,21.2,34.2,55.4,18.4,86.9-.6,1.2-1.9,2-3.3,2-25.5.3-48.3.4-68.3.4-20,0-42.8-.2-68.3-.5-1.4,0-2.6-.8-3.3-2-15.7-31.5-11-65.6,18.6-86.8,10.6-7.7,26-15.4,34.7-25.2,7.8-8.8,13.7-18.1,17.6-28.1.1-.3.4-.5.9-.5h0Z"></path>
<path d="M286.8,473.4c0,.7-.6,1.2-1.2,1.2H101.6c-.7,0-1.2-.5-1.2-1.2v-154.8c0-.7.5-1.2,1.2-1.2h183.9c.7,0,1.2.5,1.2,1.2v154.8Z"></path>
<path d="M714.9,473c0,.8-.7,1.5-1.5,1.5l-184.7.3c-.8,0-1.5-.7-1.5-1.5l-.3-154.1c0-.8.7-1.5,1.5-1.5l184.7-.3c.8,0,1.5.7,1.5,1.5l.3,154.1Z"></path>
<path d="M389.7,474.7c-.8,0-1.5-.7-1.5-1.5l.2-81.3c0-7.6,2-14.9,5.6-20.3,3.6-5.4,8.4-8.4,13.4-8.4,10.4,0,18.9,12.9,18.9,28.7l-.2,81.3c0,.8-.7,1.5-1.5,1.5h-34.7Z"></path>
<path d="M319.4,474.6c-.8,0-1.5-.7-1.5-1.5v-82c.1-5.7,1.6-11.1,4.3-15.1,2.7-4,6.3-6.3,10.1-6.2h.1c7.9,0,14.2,9.6,14.2,21.4v82c-.1.8-.8,1.5-1.7,1.5h-25.5Z"></path>
<path d="M469.6,474.7c-1,0-1.9-.8-1.9-1.9l-.3-80.5c0-6,1.5-11.7,4.2-16,2.7-4.2,6.4-6.6,10.2-6.6h.2c8,0,14.5,10,14.6,22.5l.3,80.5c0,1-.8,1.9-1.9,1.9h-25.4Z"></path>
<path d="M400.8,222.5c-.7-.2-2.5-1.1-5.4-2.6-1-.5-2.1-.4-3,.3-5.7,4.4-11.3,5.2-16.7,2.2-1.6-.9-3.1-2.6-4.6-3.4-.8-.4-1.8-.3-2.5.3-8,6.4-15.9,6.2-23.6-.5-.6-.5-1.1-1.1-1.6-1.8-10.4-16.7,8.8-33.1,25-21.9.8.5,1.7.6,2.6.2,6.1-3.2,11-5.9,17.7-2.4,3.6,1.9,5.4,2.8,5.5,2.8.8.3,1.7.2,2.4-.4,5.7-4.5,10.4-5.1,17.4-2.6.7.3,2.5,1.1,5.4,2.6,1,.5,2.1.4,3-.3,5.7-4.4,11.3-5.2,16.7-2.2,1.6.9,3.1,2.6,4.6,3.4.8.4,1.8.3,2.5-.3,8-6.4,15.9-6.2,23.6.5.6.5,1.1,1.1,1.6,1.8,10.4,16.7-8.8,33.1-25,21.9-.8-.5-1.7-.6-2.6-.2-6.1,3.2-11,5.9-17.7,2.4-3.6-1.9-5.4-2.8-5.5-2.8-.8-.3-1.7-.2-2.4.3-5.7,4.6-10.4,5.2-17.3,2.6h0Z"></path>
<path d="M174.5,446.6c0,2.7-2.2,4.9-4.9,4.9h-38.9c-2.7,0-4.9-2.1-4.9-4.8l-.2-99.6c0-2.7,2.2-4.9,4.9-4.9h38.9c2.7,0,4.9,2.1,4.9,4.8l.2,99.6Z"></path>
<path d="M258.7,446.7c0,1.3-.5,2.6-1.5,3.5-.9.9-2.2,1.5-3.5,1.5h-38.2c-1.3,0-2.6-.5-3.5-1.4-.9-.9-1.5-2.2-1.5-3.5l-.2-99.7c0-1.3.5-2.6,1.5-3.5.9-.9,2.2-1.5,3.5-1.5h38.2c1.3,0,2.6.5,3.5,1.4.9.9,1.5,2.2,1.5,3.5l.2,99.7Z"></path>
<path d="M604.4,446.8c0,2.7-2.2,4.9-4.9,4.9h-38.9c-2.7,0-4.9-2.2-4.9-4.9v-99.8c0-2.7,2.2-4.9,4.9-4.9h38.9c2.7,0,4.9,2.2,4.9,4.9v99.8Z"></path>
<path d="M688.6,446.8c0,1.3-.5,2.5-1.4,3.4-.9.9-2.1,1.4-3.4,1.4h-38.8c-2.7,0-4.8-2.2-4.8-4.9l.2-99.6c0-1.3.5-2.5,1.4-3.4.9-.9,2.1-1.4,3.4-1.4h38.8c2.7,0,4.8,2.2,4.8,4.9l-.2,99.6Z"></path>
<path d="M363.3,207.5c0,3.6-2.9,6.5-6.5,6.5s-6.5-2.9-6.5-6.5,2.9-6.5,6.5-6.5,6.5,2.9,6.5,6.5h0Z"></path>
<path d="M413.4,207.4c0,3.5-2.8,6.3-6.3,6.3s-6.3-2.8-6.3-6.3,2.8-6.3,6.3-6.3,6.3,2.8,6.3,6.3h0Z"></path>
<path d="M438.7,207.4c0,3.6-2.9,6.4-6.4,6.4s-6.4-2.9-6.4-6.4,2.9-6.4,6.4-6.4,6.4,2.9,6.4,6.4h0Z"></path>
<path d="M464,207.5c0,3.6-2.9,6.5-6.5,6.5s-6.5-2.9-6.5-6.5,2.9-6.5,6.5-6.5,6.5,2.9,6.5,6.5h0Z"></path>
<path d="M375.6,207.5c0-3.3,2.9-6,6.4-6,3.6,0,6.5,2.7,6.5,6,0,3.3-2.9,6-6.4,6-3.6,0-6.5-2.7-6.5-6h0Z"></path>
<path d="M136.8,351.7h26.7c.6,0,1.1.5,1.1,1.1v88.5c0,.6-.5,1.1-1.1,1.1h-26.7c-.6,0-1.1-.5-1.1-1.1v-88.5c0-.6.5-1.1,1.1-1.1h0Z"></path>
<path d="M221.3,351.7h26c.8,0,1.4.6,1.4,1.4v87.7c0,.8-.6,1.4-1.4,1.4h-26c-.8,0-1.4-.6-1.4-1.4v-87.7c0-.8.6-1.4,1.4-1.4h0Z"></path>
<path d="M566.8,351.6h26.6c.8,0,1.5.7,1.5,1.6l-.2,87.6c0,.8-.7,1.5-1.5,1.5h-26.6c-.8,0-1.5-.7-1.5-1.6l.2-87.6c0-.8.7-1.5,1.5-1.5h0Z"></path>
<path d="M651.3,351.6h26.5c.8,0,1.4.7,1.4,1.4l-.2,87.9c0,.8-.6,1.4-1.4,1.4h-26.5c-.8,0-1.4-.7-1.4-1.4l.2-87.9c0-.8.6-1.4,1.4-1.4h0Z"></path>
</svg>